<svg xmlns="http://www.w3.org/2000/svg" width="250" height="250" fill="none" viewBox="0 0 250 250"><path fill="url(#paint0_linear_107_28569)" d="M126.315 106.804C126.315 106.254 126.326 105.704 126.353 105.16C127.208 86.1432 143.259 70.9916 162.43 70.9484C162.45 67.3963 162.052 65.0894 162.052 65.0085C162.122 65.0085 162.192 65.0031 162.257 65.0031C151.486 64.9007 140.845 67.0406 130.999 71.1802C127.665 72.5816 124.428 74.2095 121.304 76.0583C117.379 78.3814 113.641 81.0495 110.141 84.0626C108.974 85.0652 107.834 86.1055 106.721 87.1835L87.1641 76.3332L76.3882 70.3609L59.649 61.0845C45.9263 85.8252 54.7933 117.023 79.4424 130.806L55.2181 177.172C55.2235 177.172 55.2235 177.177 55.2289 177.177C65.4402 182.535 76.2914 185.402 87.0942 186.033C117.024 187.785 146.62 172.24 161.434 143.888L162.004 142.664C161.827 142.664 161.644 142.664 161.466 142.659C142.001 142.324 126.315 126.402 126.315 106.804Z"/><path fill="#FFBF47" d="M135.629 127.647C130.187 121.653 126.74 113.805 126.353 105.16C126.326 105.704 126.316 106.254 126.316 106.804C126.316 126.402 141.995 142.33 161.472 142.659C161.681 142.664 161.886 142.664 162.095 142.664V139.371C151.61 139.376 142.173 134.854 135.629 127.647Z"/><path fill="#fff" d="M162.009 70.943C142.84 70.9862 127.214 86.1432 126.353 105.16C126.74 113.805 130.187 121.653 135.629 127.647C142.173 134.854 151.604 139.376 162.095 139.376V70.9377C162.069 70.9377 162.042 70.9377 162.009 70.943Z"/><path fill="#FFBF47" d="M59.649 61.0845L48.2816 54.7457C31.0584 85.7982 42.4097 125.135 73.3877 142.4L79.507 130.844C54.8041 117.077 45.9156 85.8467 59.649 61.0845Z"/><path fill="#FFAE3A" d="M162.052 114.544V142.648C162.063 142.648 162.079 142.648 162.09 142.648C175.555 142.632 186.793 133.097 189.476 120.397L162.052 114.544Z"/><path fill="#404AEB" d="M241.473 93.8993C241.475 92.6094 240.057 91.8187 238.951 92.4832L226.453 99.9926L217.701 96.1943L218.456 86.6831L230.954 79.1736C232.067 78.5051 232.016 76.8806 230.869 76.2717C224.889 73.1031 217.446 73.055 211.223 76.7932C204.56 80.7963 201.165 88.1605 201.704 95.4538L150.958 125.533C146.758 128.057 145.399 133.508 147.923 137.708C150.446 141.908 155.898 143.267 160.098 140.744L210.814 110.682C216.996 114.612 225.081 115.051 231.787 111.022C238.017 107.278 241.469 100.673 241.473 93.8993ZM155.619 135.824C153.836 135.379 152.75 133.572 153.195 131.79C153.64 130.006 155.446 128.922 157.229 129.366C159.011 129.811 160.097 131.616 159.652 133.4C159.208 135.182 157.401 136.268 155.619 135.824Z"/><path fill="#FFBF47" d="M195.891 77.9502C187.777 70.5657 177.222 65.8386 165.585 65.1055C164.478 65.0463 163.37 65.0085 162.262 64.9977C162.192 64.9977 162.122 65.0031 162.058 65.0031C162.058 65.1864 162.058 114.544 162.058 114.544L211.195 125.022C211.867 121.756 212.227 118.376 212.227 114.91C212.216 100.26 205.92 87.0811 195.891 77.9502Z"/><path fill="#E43C5A" d="M121.299 76.0529L109.071 48.8651C97.3539 54.1636 89.5677 64.6096 87.1641 76.3332L106.726 87.1727C111.168 82.866 116.072 79.1468 121.299 76.0529Z"/><path fill="#F7B352" d="M87.1641 76.3332C89.5731 64.6096 97.3539 54.1636 109.071 48.8651L104.183 37.9986C90.0517 44.3859 80.2974 56.4921 76.3828 70.3555L87.1641 76.3332Z"/><path fill="#404AEB" d="M39.5114 207.195C55.7505 215.738 75.8236 209.469 84.3465 193.191C85.5617 190.868 86.4705 188.469 87.0942 186.033C76.286 185.402 65.4402 182.535 55.2289 177.177L39.5114 207.195Z"/><path fill="#383B62" d="M150.577 110.986C154.117 110.986 156.987 108.11 156.987 104.561C156.987 101.013 154.117 98.1362 150.577 98.1362C147.038 98.1362 144.168 101.013 144.168 104.561C144.168 108.11 147.038 110.986 150.577 110.986Z"/><defs><linearGradient id="paint0_linear_107_28569" x1="107.811" x2="107.811" y1="61.084" y2="184.661" gradientUnits="userSpaceOnUse"><stop stop-color="#F95774"/><stop offset="1" stop-color="#E43C5B"/></linearGradient></defs></svg>