<svg xmlns="http://www.w3.org/2000/svg" width="90" height="15" fill="none" viewBox="0 0 90 15"><path fill="#3C47E4" stroke="#FFBF47" d="M1.25586 0.650391H0.755859V1.15039V14V14.5H1.25586H6.06348C7.58785 14.5 8.85683 14.1558 9.8151 13.4108C10.7992 12.6504 11.2832 11.5836 11.2832 10.2734C11.2832 9.37771 11.0864 8.60224 10.6434 7.994C10.4048 7.66215 10.0934 7.39738 9.72145 7.19215C9.94411 7.02796 10.143 6.82602 10.3165 6.58738C10.7571 5.98968 10.958 5.24852 10.958 4.40234C10.958 3.13243 10.4823 2.13267 9.48527 1.50957C8.54092 0.910029 7.10052 0.650391 5.25488 0.650391H1.25586ZM6.87977 5.48383L6.87976 5.48382L6.87636 5.48618C6.67747 5.6247 6.27318 5.73926 5.5625 5.73926H4.48047V3.88281H5.41309C6.16789 3.88281 6.62187 3.99177 6.85886 4.13551L6.85881 4.13559L6.8671 4.1404C7.04723 4.245 7.16309 4.41235 7.16309 4.7627C7.16309 5.18062 7.03729 5.37605 6.87977 5.48383ZM28.75 14.5H29.25V14V11.75V11.25H28.75H24.5742V8.93652H28.4248H28.9248V8.43652V6.2041V5.7041H28.4248H24.5742V3.88281H28.75H29.25V3.38281V1.15039V0.650391H28.75H21.3496H20.8496V1.15039V14V14.5H21.3496H28.75ZM44.6692 4.19454L44.6719 4.19617C44.9091 4.34112 45.0654 4.58823 45.0654 5.07031C45.0654 5.56457 44.9088 5.8425 44.6635 6.01421C44.3787 6.21355 43.8675 6.35449 43.043 6.35449H42.6641V3.88281H42.9902C43.84 3.88281 44.3732 4.01105 44.6692 4.19454ZM50.1158 13.7148C49.565 12.9218 48.4127 11.216 46.6564 8.59393C47.2448 8.25875 47.7297 7.83254 48.1001 7.31095L48.1014 7.30903C48.5794 6.6291 48.8164 5.85388 48.8164 5C48.8164 3.5894 48.3534 2.45948 47.3618 1.71007C46.396 0.974365 44.9729 0.650391 43.1836 0.650391H39.4395H38.9395V1.15039V14V14.5H39.4395H42.1641H42.6641V14V9.56934H43.3365L46.2571 14.2641L46.4038 14.5H46.6816H49.7051H50.661L50.1158 13.7148ZM64.2793 14.5H64.7793V14V3.91797H67.7686H68.2686V3.41797V1.15039V0.650391H67.7686H58.0654H57.5654V1.15039V3.41797V3.91797H58.0654H61.0547V14V14.5H61.5547H64.2793ZM81.7466 5.33219L79.5286 0.925598L79.3901 0.650391H79.082H76.1289H75.2928L75.6884 1.38697L79.8916 9.21269V14V14.5H80.3916H83.0986H83.5986V14V9.12603L87.8007 1.38902L88.2019 0.650391H87.3613H84.4258H84.1186L83.9798 0.924416L81.7466 5.33219ZM5.75586 11.25H4.48047V8.90137H5.66797C6.38669 8.90137 6.83658 9.02992 7.0951 9.21089C7.32113 9.3691 7.45312 9.60325 7.45312 10.001C7.45312 10.489 7.31035 10.7637 7.10387 10.9295C6.87622 11.1124 6.45897 11.25 5.75586 11.25Z"/></svg>