<svg xmlns="http://www.w3.org/2000/svg" width="70" height="17" fill="none" viewBox="0 0 70 17"><path fill="#3C47E4" stroke="#FFBF47" d="M1.31055 15V15.5H1.81055H9.74707H10.2471V15V12.75V12.25H9.74707H5.03516V2.15039V1.65039H4.53516H1.81055H1.31055V2.15039V15ZM27.3762 15.1457L27.4841 15.5H27.8545H30.79H31.4967L31.2615 14.8336L26.7088 1.93128L26.5911 1.59766H26.2373H22.9062H22.552L22.4345 1.93185L17.8994 14.8342L17.6654 15.5H18.3711H21.3066H21.677L21.7849 15.1457L22.6087 12.4414H26.5525L27.3762 15.1457ZM23.6013 9.15625C24.0103 7.82767 24.3389 6.7457 24.5863 5.91207C24.799 6.59851 25.1348 7.68004 25.5935 9.15625H23.6013ZM40.416 1.65039H39.916V2.15039V15V15.5H40.416H45.2236C46.748 15.5 48.017 15.1558 48.9753 14.4108C49.9594 13.6504 50.4434 12.5836 50.4434 11.2734C50.4434 10.3777 50.2465 9.60216 49.8034 8.9939C49.5649 8.6621 49.2535 8.39736 48.8816 8.19215C49.1043 8.02796 49.3031 7.82602 49.4767 7.58738C49.9172 6.98968 50.1182 6.24852 50.1182 5.40234C50.1182 4.1324 49.6424 3.13263 48.6454 2.50954C47.701 1.91002 46.2606 1.65039 44.415 1.65039H40.416ZM46.0399 6.48382L46.0365 6.48618C45.8376 6.6247 45.4333 6.73926 44.7227 6.73926H43.6406V4.88281H44.5732C45.328 4.88281 45.782 4.99177 46.019 5.13551L46.019 5.13559L46.0273 5.1404C46.2074 5.245 46.3232 5.41235 46.3232 5.7627C46.3232 6.18062 46.1974 6.37605 46.0399 6.48382ZM59.2188 14.4023V14.7145L59.4991 14.8515C60.6328 15.4058 61.9229 15.6758 63.3574 15.6758C64.9145 15.6758 66.1996 15.3268 67.1496 14.5648C68.1173 13.7933 68.5947 12.7296 68.5947 11.4316C68.5947 10.501 68.3455 9.68281 67.8226 9.00804C67.3044 8.33359 66.3951 7.71528 65.1727 7.13093L65.1725 7.13082C64.2637 6.69698 63.7229 6.41481 63.5085 6.2732C63.3068 6.12975 63.1876 6.00391 63.1227 5.90261C63.0666 5.80978 63.0312 5.69249 63.0312 5.53418C63.0312 5.28236 63.1135 5.10971 63.273 4.97053C63.426 4.83705 63.6868 4.7334 64.1309 4.7334C64.5213 4.7334 64.92 4.78347 65.3279 4.88546L65.3294 4.88583C65.747 4.98887 66.29 5.17514 66.9645 5.45184L67.4253 5.64086L67.6161 5.18089L68.495 3.06272L68.6836 2.60816L68.2321 2.41237C67.55 2.1166 66.8901 1.88501 66.2528 1.71947C65.605 1.54968 64.9265 1.46582 64.2188 1.46582C62.7825 1.46582 61.5882 1.80989 60.6977 2.55872L60.6963 2.55993C59.8013 3.31833 59.3682 4.35978 59.3682 5.62207C59.3682 6.29088 59.4983 6.90005 59.776 7.4346C60.0402 7.94307 60.3936 8.38834 60.8329 8.76866C61.2753 9.15159 61.9106 9.52877 62.7129 9.90604C63.5547 10.3064 64.0748 10.5814 64.3084 10.7389L64.3126 10.7416C64.5532 10.9003 64.709 11.0501 64.8034 11.1838L64.8034 11.1839L64.8075 11.1896C64.8826 11.2927 64.9229 11.4111 64.9229 11.5635C64.9229 11.8791 64.82 12.0548 64.6502 12.1751L64.6467 12.1777C64.4499 12.3198 64.1133 12.4258 63.5684 12.4258C63.1224 12.4258 62.6151 12.3548 62.0431 12.2049C61.4814 12.0561 60.7762 11.7952 59.9224 11.4144L59.2188 11.1007V11.8711V14.4023ZM44.916 12.25H43.6406V9.90137H44.8281C45.5468 9.90137 45.9967 10.0299 46.2553 10.2109C46.4813 10.3691 46.6133 10.6033 46.6133 11.001C46.6133 11.489 46.4705 11.7637 46.264 11.9295C46.0364 12.1124 45.6191 12.25 44.916 12.25Z"/></svg>