<svg xmlns="http://www.w3.org/2000/svg" width="17" height="17" fill="none" viewBox="0 0 17 17"><path stroke="#fff" stroke-miterlimit="10" d="M7.13635 1C5.92269 1 4.73629 1.35989 3.72718 2.03416C2.71806 2.70843 1.93155 3.6668 1.4671 4.78807C1.00266 5.90934 0.881139 7.14315 1.11791 8.33348C1.35468 9.52382 1.93911 10.6172 2.7973 11.4754C3.65548 12.3336 4.74887 12.918 5.93921 13.1548C7.12954 13.3916 8.36335 13.27 9.48462 12.8056C10.6059 12.3411 11.5643 11.5546 12.2385 10.5455C12.9128 9.5364 13.2727 8.35 13.2727 7.13634C13.2726 5.50892 12.626 3.94817 11.4753 2.79741C10.3245 1.64664 8.76377 1.0001 7.13635 1V1Z"/><path stroke="#fff" stroke-linecap="round" stroke-miterlimit="10" d="M11.7145 11.7145L16 16"/></svg>