<svg xmlns="http://www.w3.org/2000/svg" width="720" height="562" fill="none" viewBox="0 0 720 562"><path fill="#3C47E4" d="M80.7368 500.628H83.5757C86.229 500.628 88.2144 500.108 89.5317 499.069C90.8491 498.011 91.5078 496.481 91.5078 494.477C91.5078 492.454 90.9512 490.961 89.8379 489.996C88.7432 489.031 87.0176 488.548 84.6611 488.548H80.7368V500.628ZM100.219 494.171C100.219 498.549 98.8462 501.899 96.1001 504.218C93.3726 506.537 89.4854 507.697 84.4385 507.697H80.7368V522.17H72.1089V481.479H85.1064C90.042 481.479 93.79 482.546 96.3506 484.68C98.9297 486.795 100.219 489.959 100.219 494.171ZM135.506 522.17H107.062V516.186L117.276 505.86C120.301 502.761 122.277 500.618 123.205 499.431C124.132 498.225 124.8 497.111 125.208 496.091C125.617 495.07 125.821 494.013 125.821 492.918C125.821 491.285 125.366 490.07 124.457 489.272C123.566 488.474 122.37 488.075 120.867 488.075C119.29 488.075 117.759 488.437 116.274 489.161C114.79 489.884 113.241 490.914 111.626 492.25L106.951 486.712C108.955 485.004 110.615 483.798 111.933 483.093C113.25 482.388 114.688 481.85 116.247 481.479C117.805 481.089 119.549 480.895 121.479 480.895C124.021 480.895 126.266 481.358 128.214 482.286C130.163 483.214 131.675 484.513 132.751 486.183C133.827 487.853 134.365 489.764 134.365 491.916C134.365 493.79 134.031 495.553 133.363 497.204C132.714 498.837 131.693 500.516 130.302 502.242C128.929 503.967 126.498 506.426 123.01 509.617L117.777 514.544V514.933H135.506V522.17ZM153.092 500.628H155.931C158.584 500.628 160.57 500.108 161.887 499.069C163.205 498.011 163.863 496.481 163.863 494.477C163.863 492.454 163.307 490.961 162.193 489.996C161.099 489.031 159.373 488.548 157.017 488.548H153.092V500.628ZM172.575 494.171C172.575 498.549 171.202 501.899 168.456 504.218C165.728 506.537 161.841 507.697 156.794 507.697H153.092V522.17H144.464V481.479H157.462C162.397 481.479 166.146 482.546 168.706 484.68C171.285 486.795 172.575 489.959 172.575 494.171ZM214.76 522.17H206.132V488.66H195.083V481.479H225.81V488.66H214.76V522.17ZM271.005 501.769C271.005 508.504 269.335 513.681 265.995 517.299C262.655 520.917 257.868 522.726 251.634 522.726C245.399 522.726 240.612 520.917 237.272 517.299C233.933 513.681 232.263 508.485 232.263 501.713C232.263 494.941 233.933 489.773 237.272 486.211C240.631 482.629 245.437 480.839 251.689 480.839C257.942 480.839 262.72 482.639 266.023 486.238C269.344 489.838 271.005 495.015 271.005 501.769ZM241.308 501.769C241.308 506.315 242.171 509.738 243.896 512.039C245.622 514.339 248.201 515.49 251.634 515.49C258.518 515.49 261.959 510.916 261.959 501.769C261.959 492.603 258.536 488.02 251.689 488.02C248.257 488.02 245.668 489.179 243.924 491.499C242.18 493.799 241.308 497.223 241.308 501.769ZM318.371 501.769C318.371 508.504 316.701 513.681 313.361 517.299C310.021 520.917 305.234 522.726 299 522.726C292.766 522.726 287.979 520.917 284.639 517.299C281.299 513.681 279.629 508.485 279.629 501.713C279.629 494.941 281.299 489.773 284.639 486.211C287.997 482.629 292.803 480.839 299.056 480.839C305.309 480.839 310.086 482.639 313.389 486.238C316.71 489.838 318.371 495.015 318.371 501.769ZM288.674 501.769C288.674 506.315 289.537 509.738 291.263 512.039C292.988 514.339 295.567 515.49 299 515.49C305.884 515.49 309.326 510.916 309.326 501.769C309.326 492.603 305.902 488.02 299.056 488.02C295.623 488.02 293.035 489.179 291.291 491.499C289.546 493.799 288.674 497.223 288.674 501.769ZM328.804 522.17V481.479H337.432V515.045H353.937V522.17H328.804ZM387.053 510.87C387.053 514.544 385.726 517.438 383.073 519.553C380.438 521.669 376.764 522.726 372.051 522.726C367.709 522.726 363.869 521.91 360.529 520.277V512.261C363.275 513.486 365.594 514.349 367.487 514.85C369.398 515.351 371.142 515.601 372.719 515.601C374.612 515.601 376.059 515.239 377.061 514.516C378.082 513.792 378.592 512.716 378.592 511.287C378.592 510.489 378.369 509.784 377.924 509.172C377.479 508.541 376.82 507.938 375.948 507.363C375.094 506.788 373.341 505.869 370.688 504.608C368.201 503.439 366.336 502.316 365.093 501.24C363.85 500.164 362.857 498.911 362.115 497.483C361.373 496.054 361.002 494.384 361.002 492.473C361.002 488.873 362.217 486.044 364.648 483.984C367.097 481.924 370.474 480.895 374.779 480.895C376.894 480.895 378.907 481.145 380.818 481.646C382.748 482.147 384.761 482.852 386.858 483.761L384.075 490.469C381.904 489.578 380.104 488.957 378.675 488.604C377.265 488.252 375.874 488.075 374.5 488.075C372.868 488.075 371.615 488.456 370.743 489.216C369.871 489.977 369.435 490.97 369.435 492.194C369.435 492.955 369.611 493.623 369.964 494.198C370.316 494.755 370.873 495.302 371.634 495.84C372.413 496.36 374.241 497.306 377.117 498.679C380.92 500.498 383.527 502.325 384.938 504.162C386.348 505.981 387.053 508.216 387.053 510.87ZM421.724 522.17H413.235V481.479H436.558V488.548H421.724V499.041H435.528V506.083H421.724V522.17ZM483.451 501.769C483.451 508.504 481.781 513.681 478.441 517.299C475.102 520.917 470.314 522.726 464.08 522.726C457.846 522.726 453.059 520.917 449.719 517.299C446.379 513.681 444.709 508.485 444.709 501.713C444.709 494.941 446.379 489.773 449.719 486.211C453.077 482.629 457.883 480.839 464.136 480.839C470.389 480.839 475.167 482.639 478.469 486.238C481.791 489.838 483.451 495.015 483.451 501.769ZM453.754 501.769C453.754 506.315 454.617 509.738 456.343 512.039C458.068 514.339 460.647 515.49 464.08 515.49C470.964 515.49 474.406 510.916 474.406 501.769C474.406 492.603 470.982 488.02 464.136 488.02C460.703 488.02 458.115 489.179 456.371 491.499C454.626 493.799 453.754 497.223 453.754 501.769ZM502.512 499.542H505.295C508.023 499.542 510.036 499.087 511.335 498.178C512.634 497.269 513.283 495.84 513.283 493.892C513.283 491.962 512.615 490.589 511.279 489.773C509.962 488.957 507.912 488.548 505.128 488.548H502.512V499.542ZM502.512 506.556V522.17H493.884V481.479H505.741C511.27 481.479 515.361 482.49 518.015 484.513C520.668 486.517 521.995 489.569 521.995 493.67C521.995 496.063 521.336 498.197 520.019 500.071C518.701 501.926 516.836 503.383 514.424 504.441C520.547 513.588 524.537 519.498 526.392 522.17H516.818L507.104 506.556H502.512ZM575.229 522.17L572.279 512.484H557.445L554.495 522.17H545.199L559.56 481.312H570.108L584.525 522.17H575.229ZM570.22 505.248C567.492 496.471 565.952 491.508 565.6 490.358C565.266 489.207 565.024 488.298 564.876 487.63C564.264 490.005 562.51 495.878 559.616 505.248H570.22ZM591.674 522.17V481.479H600.302V515.045H616.807V522.17H591.674ZM625.904 522.17V481.479H634.532V515.045H651.036V522.17H625.904Z"/><path fill="#FFBF47" d="M80.7368 500.628H79.7368V501.628H80.7368V500.628ZM89.5317 499.069L90.151 499.854L90.1578 499.849L89.5317 499.069ZM89.8379 489.996L89.1767 490.746L89.183 490.751L89.8379 489.996ZM80.7368 488.548V487.548H79.7368V488.548H80.7368ZM96.1001 504.218L95.4548 503.454L95.4523 503.456L96.1001 504.218ZM80.7368 507.697V506.697H79.7368V507.697H80.7368ZM80.7368 522.17V523.17H81.7368V522.17H80.7368ZM72.1089 522.17H71.1089V523.17H72.1089V522.17ZM72.1089 481.479V480.479H71.1089V481.479H72.1089ZM96.3506 484.68L95.7104 485.448L95.7164 485.453L96.3506 484.68ZM80.7368 501.628H83.5757V499.628H80.7368V501.628ZM83.5757 501.628C86.3314 501.628 88.5806 501.093 90.151 499.854L88.9125 498.284C87.8481 499.123 86.1266 499.628 83.5757 499.628V501.628ZM90.1578 499.849C91.7566 498.565 92.5078 496.721 92.5078 494.477H90.5078C90.5078 496.24 89.9416 497.457 88.9057 498.289L90.1578 499.849ZM92.5078 494.477C92.5078 492.277 91.8983 490.458 90.4928 489.24L89.183 490.751C90.004 491.463 90.5078 492.631 90.5078 494.477H92.5078ZM90.4991 489.245C89.1382 488.046 87.1201 487.548 84.6611 487.548V489.548C86.915 489.548 88.3481 490.016 89.1767 490.746L90.4991 489.245ZM84.6611 487.548H80.7368V489.548H84.6611V487.548ZM79.7368 488.548V500.628H81.7368V488.548H79.7368ZM99.2192 494.171C99.2192 498.325 97.9272 501.366 95.4548 503.454L96.7453 504.982C99.7651 502.431 101.219 498.773 101.219 494.171H99.2192ZM95.4523 503.456C92.9674 505.569 89.3441 506.697 84.4385 506.697V508.697C89.6266 508.697 93.7778 507.505 96.7479 504.98L95.4523 503.456ZM84.4385 506.697H80.7368V508.697H84.4385V506.697ZM79.7368 507.697V522.17H81.7368V507.697H79.7368ZM80.7368 521.17H72.1089V523.17H80.7368V521.17ZM73.1089 522.17V481.479H71.1089V522.17H73.1089ZM72.1089 482.479H85.1064V480.479H72.1089V482.479ZM85.1064 482.479C89.9169 482.479 93.3984 483.521 95.7104 485.448L96.9908 483.912C94.1816 481.571 90.1671 480.479 85.1064 480.479V482.479ZM95.7164 485.453C98.005 487.33 99.2192 490.172 99.2192 494.171H101.219C101.219 489.745 99.8544 486.26 96.9847 483.907L95.7164 485.453ZM135.506 522.17V523.17H136.506V522.17H135.506ZM107.062 522.17H106.062V523.17H107.062V522.17ZM107.062 516.186L106.351 515.482L106.062 515.775V516.186H107.062ZM117.276 505.86L117.987 506.563L117.992 506.558L117.276 505.86ZM123.205 499.431L123.993 500.046L123.997 500.04L123.205 499.431ZM124.457 489.272L123.79 490.017L123.797 490.024L124.457 489.272ZM111.626 492.25L110.862 492.895L111.501 493.652L112.264 493.02L111.626 492.25ZM106.951 486.712L106.302 485.95L105.544 486.596L106.187 487.357L106.951 486.712ZM116.247 481.479L116.478 482.452L116.489 482.449L116.247 481.479ZM132.751 486.183L131.91 486.724L132.751 486.183ZM133.363 497.204L132.436 496.829L132.434 496.835L133.363 497.204ZM130.302 502.242L129.523 501.614L129.519 501.619L130.302 502.242ZM123.01 509.617L122.335 508.879L122.329 508.884L122.324 508.889L123.01 509.617ZM117.777 514.544L117.092 513.815L116.777 514.112V514.544H117.777ZM117.777 514.933H116.777V515.933H117.777V514.933ZM135.506 514.933H136.506V513.933H135.506V514.933ZM135.506 521.17H107.062V523.17H135.506V521.17ZM108.062 522.17V516.186H106.062V522.17H108.062ZM107.773 516.889L117.987 506.563L116.565 505.157L106.351 515.482L107.773 516.889ZM117.992 506.558C121.011 503.465 123.026 501.284 123.993 500.046L122.417 498.815C121.528 499.952 119.59 502.057 116.561 505.161L117.992 506.558ZM123.997 500.04C124.961 498.787 125.684 497.594 126.137 496.462L124.28 495.72C123.916 496.629 123.303 497.662 122.412 498.821L123.997 500.04ZM126.137 496.462C126.592 495.324 126.821 494.141 126.821 492.918H124.821C124.821 493.885 124.641 494.817 124.28 495.72L126.137 496.462ZM126.821 492.918C126.821 491.103 126.311 489.568 125.117 488.52L123.797 490.024C124.422 490.572 124.821 491.467 124.821 492.918H126.821ZM125.124 488.527C124.007 487.526 122.55 487.075 120.867 487.075V489.075C122.189 489.075 123.126 489.422 123.79 490.017L125.124 488.527ZM120.867 487.075C119.131 487.075 117.45 487.475 115.836 488.262L116.713 490.06C118.067 489.399 119.449 489.075 120.867 489.075V487.075ZM115.836 488.262C114.264 489.028 112.649 490.106 110.989 491.48L112.264 493.02C113.833 491.722 115.316 490.741 116.713 490.06L115.836 488.262ZM112.391 491.605L107.715 486.066L106.187 487.357L110.862 492.895L112.391 491.605ZM107.599 487.473C109.583 485.783 111.18 484.63 112.404 483.975L111.461 482.212C110.05 482.967 108.326 484.226 106.302 485.95L107.599 487.473ZM112.404 483.975C113.641 483.313 114.997 482.805 116.478 482.452L116.015 480.506C114.379 480.896 112.859 481.463 111.461 482.212L112.404 483.975ZM116.489 482.449C117.954 482.083 119.615 481.895 121.479 481.895V479.895C119.483 479.895 117.656 480.096 116.004 480.509L116.489 482.449ZM121.479 481.895C123.899 481.895 125.992 482.336 127.784 483.189L128.644 481.383C126.54 480.381 124.143 479.895 121.479 479.895V481.895ZM127.784 483.189C129.58 484.044 130.944 485.224 131.91 486.724L133.592 485.641C132.406 483.801 130.745 482.384 128.644 481.383L127.784 483.189ZM131.91 486.724C132.874 488.219 133.365 489.939 133.365 491.916H135.365C135.365 489.588 134.78 487.486 133.592 485.641L131.91 486.724ZM133.365 491.916C133.365 493.668 133.054 495.303 132.436 496.829L134.29 497.579C135.009 495.803 135.365 493.912 135.365 491.916H133.365ZM132.434 496.835C131.83 498.354 130.868 499.947 129.523 501.614L131.08 502.87C132.519 501.085 133.598 499.32 134.292 497.574L132.434 496.835ZM129.519 501.619C128.199 503.279 125.818 505.693 122.335 508.879L123.685 510.355C127.178 507.159 129.659 504.656 131.084 502.864L129.519 501.619ZM122.324 508.889L117.092 513.815L118.463 515.272L123.695 510.345L122.324 508.889ZM116.777 514.544V514.933H118.777V514.544H116.777ZM117.777 515.933H135.506V513.933H117.777V515.933ZM134.506 514.933V522.17H136.506V514.933H134.506ZM153.092 500.628H152.092V501.628H153.092V500.628ZM161.887 499.069L162.507 499.854L162.513 499.849L161.887 499.069ZM162.193 489.996L161.532 490.746L161.538 490.751L162.193 489.996ZM153.092 488.548V487.548H152.092V488.548H153.092ZM168.456 504.218L167.81 503.454L167.808 503.456L168.456 504.218ZM153.092 507.697V506.697H152.092V507.697H153.092ZM153.092 522.17V523.17H154.092V522.17H153.092ZM144.464 522.17H143.464V523.17H144.464V522.17ZM144.464 481.479V480.479H143.464V481.479H144.464ZM168.706 484.68L168.066 485.448L168.072 485.453L168.706 484.68ZM153.092 501.628H155.931V499.628H153.092V501.628ZM155.931 501.628C158.687 501.628 160.936 501.093 162.506 499.854L161.268 498.284C160.204 499.123 158.482 499.628 155.931 499.628V501.628ZM162.513 499.849C164.112 498.565 164.863 496.721 164.863 494.477H162.863C162.863 496.24 162.297 497.457 161.261 498.289L162.513 499.849ZM164.863 494.477C164.863 492.277 164.254 490.458 162.848 489.24L161.538 490.751C162.359 491.463 162.863 492.631 162.863 494.477H164.863ZM162.855 489.245C161.494 488.046 159.476 487.548 157.017 487.548V489.548C159.271 489.548 160.704 490.016 161.532 490.746L162.855 489.245ZM157.017 487.548H153.092V489.548H157.017V487.548ZM152.092 488.548V500.628H154.092V488.548H152.092ZM171.575 494.171C171.575 498.325 170.283 501.366 167.81 503.454L169.101 504.982C172.121 502.431 173.575 498.773 173.575 494.171H171.575ZM167.808 503.456C165.323 505.569 161.7 506.697 156.794 506.697V508.697C161.982 508.697 166.133 507.505 169.103 504.98L167.808 503.456ZM156.794 506.697H153.092V508.697H156.794V506.697ZM152.092 507.697V522.17H154.092V507.697H152.092ZM153.092 521.17H144.464V523.17H153.092V521.17ZM145.464 522.17V481.479H143.464V522.17H145.464ZM144.464 482.479H157.462V480.479H144.464V482.479ZM157.462 482.479C162.272 482.479 165.754 483.521 168.066 485.448L169.346 483.912C166.537 481.571 162.523 480.479 157.462 480.479V482.479ZM168.072 485.453C170.36 487.33 171.575 490.172 171.575 494.171H173.575C173.575 489.745 172.21 486.26 169.34 483.907L168.072 485.453ZM214.76 522.17V523.17H215.76V522.17H214.76ZM206.132 522.17H205.132V523.17H206.132V522.17ZM206.132 488.66H207.132V487.66H206.132V488.66ZM195.083 488.66H194.083V489.66H195.083V488.66ZM195.083 481.479V480.479H194.083V481.479H195.083ZM225.81 481.479H226.81V480.479H225.81V481.479ZM225.81 488.66V489.66H226.81V488.66H225.81ZM214.76 488.66V487.66H213.76V488.66H214.76ZM214.76 521.17H206.132V523.17H214.76V521.17ZM207.132 522.17V488.66H205.132V522.17H207.132ZM206.132 487.66H195.083V489.66H206.132V487.66ZM196.083 488.66V481.479H194.083V488.66H196.083ZM195.083 482.479H225.81V480.479H195.083V482.479ZM224.81 481.479V488.66H226.81V481.479H224.81ZM225.81 487.66H214.76V489.66H225.81V487.66ZM213.76 488.66V522.17H215.76V488.66H213.76ZM237.272 486.211L236.543 485.526L236.543 485.527L237.272 486.211ZM266.023 486.238L265.286 486.914L265.288 486.916L266.023 486.238ZM243.924 491.499L244.721 492.103L244.724 492.1L243.924 491.499ZM270.005 501.769C270.005 508.346 268.375 513.246 265.26 516.621L266.73 517.977C270.295 514.115 272.005 508.662 272.005 501.769H270.005ZM265.26 516.621C262.157 519.982 257.668 521.726 251.634 521.726V523.726C258.068 523.726 263.153 521.852 266.73 517.977L265.26 516.621ZM251.634 521.726C245.599 521.726 241.11 519.982 238.007 516.621L236.538 517.977C240.115 521.852 245.199 523.726 251.634 523.726V521.726ZM238.007 516.621C234.893 513.247 233.263 508.329 233.263 501.713H231.263C231.263 508.642 232.972 514.115 236.538 517.977L238.007 516.621ZM233.263 501.713C233.263 495.095 234.894 490.21 238.002 486.894L236.543 485.527C232.972 489.336 231.263 494.786 231.263 501.713H233.263ZM238.002 486.895C241.123 483.567 245.633 481.839 251.689 481.839V479.839C245.24 479.839 240.139 481.692 236.543 485.526L238.002 486.895ZM251.689 481.839C257.746 481.839 262.223 483.576 265.286 486.914L266.76 485.562C263.218 481.702 258.139 479.839 251.689 479.839V481.839ZM265.288 486.916C268.383 490.271 270.005 495.17 270.005 501.769H272.005C272.005 494.859 270.305 489.405 266.758 485.56L265.288 486.916ZM240.308 501.769C240.308 506.414 241.185 510.09 243.096 512.639L244.696 511.439C243.157 509.386 242.308 506.215 242.308 501.769H240.308ZM243.096 512.639C245.049 515.241 247.955 516.49 251.634 516.49V514.49C248.447 514.49 246.196 513.437 244.696 511.439L243.096 512.639ZM251.634 516.49C255.318 516.49 258.228 515.251 260.177 512.661C262.086 510.124 262.959 506.439 262.959 501.769H260.959C260.959 506.246 260.112 509.421 258.579 511.458C257.086 513.442 254.833 514.49 251.634 514.49V516.49ZM262.959 501.769C262.959 497.09 262.091 493.399 260.193 490.858C258.254 488.263 255.358 487.02 251.689 487.02V489.02C254.867 489.02 257.106 490.068 258.591 492.055C260.116 494.098 260.959 497.281 260.959 501.769H262.959ZM251.689 487.02C248.007 487.02 245.094 488.279 243.125 490.898L244.724 492.1C246.243 490.079 248.506 489.02 251.689 489.02V487.02ZM243.127 490.895C241.195 493.444 240.308 497.122 240.308 501.769H242.308C242.308 497.324 243.165 494.155 244.721 492.103L243.127 490.895ZM284.639 486.211L283.909 485.526L283.909 485.527L284.639 486.211ZM313.389 486.238L312.652 486.914L312.654 486.916L313.389 486.238ZM291.291 491.499L292.087 492.103L292.09 492.1L291.291 491.499ZM317.371 501.769C317.371 508.346 315.742 513.246 312.627 516.621L314.096 517.977C317.661 514.115 319.371 508.662 319.371 501.769H317.371ZM312.627 516.621C309.524 519.982 305.034 521.726 299 521.726V523.726C305.434 523.726 310.519 521.852 314.096 517.977L312.627 516.621ZM299 521.726C292.966 521.726 288.476 519.982 285.373 516.621L283.904 517.977C287.481 521.852 292.566 523.726 299 523.726V521.726ZM285.373 516.621C282.259 513.247 280.629 508.329 280.629 501.713H278.629C278.629 508.642 280.338 514.115 283.904 517.977L285.373 516.621ZM280.629 501.713C280.629 495.095 282.26 490.21 285.368 486.894L283.909 485.527C280.338 489.336 278.629 494.786 278.629 501.713H280.629ZM285.368 486.895C288.489 483.567 292.999 481.839 299.056 481.839V479.839C292.607 479.839 287.505 481.692 283.909 485.526L285.368 486.895ZM299.056 481.839C305.112 481.839 309.589 483.576 312.652 486.914L314.126 485.562C310.584 481.702 305.505 479.839 299.056 479.839V481.839ZM312.654 486.916C315.75 490.271 317.371 495.17 317.371 501.769H319.371C319.371 494.859 317.671 489.405 314.124 485.56L312.654 486.916ZM287.674 501.769C287.674 506.414 288.551 510.09 290.463 512.639L292.063 511.439C290.523 509.386 289.674 506.215 289.674 501.769H287.674ZM290.463 512.639C292.415 515.241 295.321 516.49 299 516.49V514.49C295.814 514.49 293.562 513.437 292.063 511.439L290.463 512.639ZM299 516.49C302.685 516.49 305.594 515.251 307.543 512.661C309.452 510.124 310.326 506.439 310.326 501.769H308.326C308.326 506.246 307.478 509.421 305.945 511.458C304.452 513.442 302.199 514.49 299 514.49V516.49ZM310.326 501.769C310.326 497.09 309.457 493.399 307.559 490.858C305.621 488.263 302.725 487.02 299.056 487.02V489.02C302.233 489.02 304.472 490.068 305.957 492.055C307.483 494.098 308.326 497.281 308.326 501.769H310.326ZM299.056 487.02C295.374 487.02 292.46 488.279 290.491 490.898L292.09 492.1C293.609 490.079 295.872 489.02 299.056 489.02V487.02ZM290.494 490.895C288.561 493.444 287.674 497.122 287.674 501.769H289.674C289.674 497.324 290.532 494.155 292.087 492.103L290.494 490.895ZM328.804 522.17H327.804V523.17H328.804V522.17ZM328.804 481.479V480.479H327.804V481.479H328.804ZM337.432 481.479H338.432V480.479H337.432V481.479ZM337.432 515.045H336.432V516.045H337.432V515.045ZM353.937 515.045H354.937V514.045H353.937V515.045ZM353.937 522.17V523.17H354.937V522.17H353.937ZM329.804 522.17V481.479H327.804V522.17H329.804ZM328.804 482.479H337.432V480.479H328.804V482.479ZM336.432 481.479V515.045H338.432V481.479H336.432ZM337.432 516.045H353.937V514.045H337.432V516.045ZM352.937 515.045V522.17H354.937V515.045H352.937ZM353.937 521.17H328.804V523.17H353.937V521.17ZM383.073 519.553L382.449 518.771L382.447 518.774L383.073 519.553ZM360.529 520.277H359.529V520.901L360.09 521.175L360.529 520.277ZM360.529 512.261L360.936 511.348L359.529 510.72V512.261H360.529ZM367.487 514.85L367.231 515.816L367.233 515.817L367.487 514.85ZM377.061 514.516L376.483 513.7L376.476 513.705L377.061 514.516ZM377.924 509.172L377.107 509.749L377.115 509.76L377.924 509.172ZM375.948 507.363L375.389 508.192L375.397 508.198L375.948 507.363ZM370.688 504.608L371.117 503.704L371.113 503.703L370.688 504.608ZM364.648 483.984L364.004 483.219L364.001 483.221L364.648 483.984ZM380.818 481.646L380.565 482.613L380.567 482.614L380.818 481.646ZM386.858 483.761L387.782 484.145L388.159 483.235L387.256 482.844L386.858 483.761ZM384.075 490.469L383.695 491.394L384.617 491.772L384.998 490.852L384.075 490.469ZM378.675 488.604L378.433 489.574L378.436 489.575L378.675 488.604ZM369.964 494.198L369.111 494.721L369.115 494.727L369.119 494.733L369.964 494.198ZM371.634 495.84L371.056 496.657L371.068 496.665L371.079 496.672L371.634 495.84ZM377.117 498.679L377.548 497.777L377.548 497.777L377.117 498.679ZM384.938 504.162L384.144 504.771L384.147 504.775L384.938 504.162ZM386.053 510.87C386.053 514.268 384.843 516.863 382.449 518.771L383.696 520.335C386.609 518.013 388.053 514.819 388.053 510.87H386.053ZM382.447 518.774C380.048 520.699 376.625 521.726 372.051 521.726V523.726C376.903 523.726 380.828 522.638 383.699 520.333L382.447 518.774ZM372.051 521.726C367.836 521.726 364.15 520.934 360.968 519.379L360.09 521.175C363.587 522.885 367.583 523.726 372.051 523.726V521.726ZM361.529 520.277V512.261H359.529V520.277H361.529ZM360.122 513.175C362.894 514.411 365.267 515.297 367.231 515.816L367.743 513.883C365.922 513.401 363.656 512.561 360.936 511.348L360.122 513.175ZM367.233 515.817C369.207 516.334 371.038 516.601 372.719 516.601V514.601C371.246 514.601 369.589 514.367 367.74 513.882L367.233 515.817ZM372.719 516.601C374.717 516.601 376.405 516.223 377.647 515.326L376.476 513.705C375.713 514.256 374.506 514.601 372.719 514.601V516.601ZM377.639 515.331C378.965 514.392 379.592 512.987 379.592 511.287H377.592C377.592 512.445 377.198 513.193 376.483 513.7L377.639 515.331ZM379.592 511.287C379.592 510.29 379.309 509.377 378.733 508.584L377.115 509.76C377.429 510.192 377.592 510.689 377.592 511.287H379.592ZM378.741 508.595C378.203 507.834 377.44 507.149 376.498 506.528L375.397 508.198C376.2 508.727 376.754 509.249 377.107 509.749L378.741 508.595ZM376.507 506.534C375.582 505.91 373.761 504.962 371.117 503.704L370.258 505.511C372.92 506.777 374.607 507.665 375.389 508.192L376.507 506.534ZM371.113 503.703C368.662 502.55 366.891 501.473 365.748 500.484L364.439 501.996C365.782 503.159 367.74 504.327 370.262 505.512L371.113 503.703ZM365.748 500.484C364.598 499.489 363.685 498.336 363.003 497.022L361.228 497.944C362.03 499.487 363.102 500.839 364.439 501.996L365.748 500.484ZM363.003 497.022C362.347 495.76 362.002 494.253 362.002 492.473H360.002C360.002 494.514 360.399 496.348 361.228 497.944L363.003 497.022ZM362.002 492.473C362.002 489.124 363.119 486.59 365.294 484.747L364.001 483.221C361.316 485.497 360.002 488.622 360.002 492.473H362.002ZM365.292 484.749C367.507 482.887 370.628 481.895 374.779 481.895V479.895C370.32 479.895 366.688 480.962 364.004 483.219L365.292 484.749ZM374.779 481.895C376.814 481.895 378.742 482.136 380.565 482.613L381.072 480.679C379.072 480.155 376.974 479.895 374.779 479.895V481.895ZM380.567 482.614C382.44 483.1 384.404 483.787 386.46 484.679L387.256 482.844C385.118 481.917 383.056 481.194 381.07 480.678L380.567 482.614ZM385.934 483.378L383.151 490.086L384.998 490.852L387.782 484.145L385.934 483.378ZM384.454 489.544C382.261 488.644 380.411 488.002 378.915 487.633L378.436 489.575C379.797 489.911 381.546 490.512 383.695 491.394L384.454 489.544ZM378.918 487.634C377.433 487.263 375.96 487.075 374.5 487.075V489.075C375.787 489.075 377.097 489.24 378.433 489.574L378.918 487.634ZM374.5 487.075C372.725 487.075 371.203 487.489 370.086 488.463L371.401 489.97C372.028 489.423 373.011 489.075 374.5 489.075V487.075ZM370.086 488.463C368.982 489.426 368.435 490.7 368.435 492.194H370.435C370.435 491.24 370.76 490.529 371.401 489.97L370.086 488.463ZM368.435 492.194C368.435 493.115 368.65 493.969 369.111 494.721L370.816 493.676C370.572 493.277 370.435 492.795 370.435 492.194H368.435ZM369.119 494.733C369.564 495.436 370.23 496.072 371.056 496.657L372.211 495.024C371.516 494.532 371.069 494.074 370.809 493.663L369.119 494.733ZM371.079 496.672C371.929 497.239 373.827 498.217 376.686 499.582L377.548 497.777C374.655 496.396 372.897 495.481 372.188 495.008L371.079 496.672ZM376.685 499.581C380.446 501.379 382.88 503.124 384.144 504.771L385.731 503.553C384.175 501.527 381.395 499.616 377.548 497.777L376.685 499.581ZM384.147 504.775C385.401 506.392 386.053 508.403 386.053 510.87H388.053C388.053 508.03 387.294 505.569 385.728 503.549L384.147 504.775ZM421.724 522.17V523.17H422.724V522.17H421.724ZM413.235 522.17H412.235V523.17H413.235V522.17ZM413.235 481.479V480.479H412.235V481.479H413.235ZM436.558 481.479H437.558V480.479H436.558V481.479ZM436.558 488.548V489.548H437.558V488.548H436.558ZM421.724 488.548V487.548H420.724V488.548H421.724ZM421.724 499.041H420.724V500.041H421.724V499.041ZM435.528 499.041H436.528V498.041H435.528V499.041ZM435.528 506.083V507.083H436.528V506.083H435.528ZM421.724 506.083V505.083H420.724V506.083H421.724ZM421.724 521.17H413.235V523.17H421.724V521.17ZM414.235 522.17V481.479H412.235V522.17H414.235ZM413.235 482.479H436.558V480.479H413.235V482.479ZM435.558 481.479V488.548H437.558V481.479H435.558ZM436.558 487.548H421.724V489.548H436.558V487.548ZM420.724 488.548V499.041H422.724V488.548H420.724ZM421.724 500.041H435.528V498.041H421.724V500.041ZM434.528 499.041V506.083H436.528V499.041H434.528ZM435.528 505.083H421.724V507.083H435.528V505.083ZM420.724 506.083V522.17H422.724V506.083H420.724ZM449.719 486.211L448.989 485.526L448.989 485.527L449.719 486.211ZM478.469 486.238L477.732 486.914L477.734 486.916L478.469 486.238ZM456.371 491.499L457.168 492.103L457.17 492.1L456.371 491.499ZM482.451 501.769C482.451 508.346 480.822 513.246 477.707 516.621L479.176 517.977C482.741 514.115 484.451 508.662 484.451 501.769H482.451ZM477.707 516.621C474.604 519.982 470.114 521.726 464.08 521.726V523.726C470.514 523.726 475.599 521.852 479.176 517.977L477.707 516.621ZM464.08 521.726C458.046 521.726 453.556 519.982 450.454 516.621L448.984 517.977C452.561 521.852 457.646 523.726 464.08 523.726V521.726ZM450.454 516.621C447.339 513.247 445.709 508.329 445.709 501.713H443.709C443.709 508.642 445.418 514.115 448.984 517.977L450.454 516.621ZM445.709 501.713C445.709 495.095 447.34 490.21 450.448 486.894L448.989 485.527C445.418 489.336 443.709 494.786 443.709 501.713H445.709ZM450.448 486.895C453.569 483.567 458.079 481.839 464.136 481.839V479.839C457.687 479.839 452.585 481.692 448.989 485.526L450.448 486.895ZM464.136 481.839C470.192 481.839 474.669 483.576 477.732 486.914L479.206 485.562C475.664 481.702 470.585 479.839 464.136 479.839V481.839ZM477.734 486.916C480.83 490.271 482.451 495.17 482.451 501.769H484.451C484.451 494.859 482.751 489.405 479.204 485.56L477.734 486.916ZM452.754 501.769C452.754 506.414 453.631 510.09 455.543 512.639L457.143 511.439C455.603 509.386 454.754 506.215 454.754 501.769H452.754ZM455.543 512.639C457.495 515.241 460.401 516.49 464.08 516.49V514.49C460.894 514.49 458.642 513.437 457.143 511.439L455.543 512.639ZM464.08 516.49C467.765 516.49 470.674 515.251 472.623 512.661C474.532 510.124 475.406 506.439 475.406 501.769H473.406C473.406 506.246 472.558 509.421 471.025 511.458C469.532 513.442 467.279 514.49 464.08 514.49V516.49ZM475.406 501.769C475.406 497.09 474.537 493.399 472.639 490.858C470.701 488.263 467.805 487.02 464.136 487.02V489.02C467.314 489.02 469.552 490.068 471.037 492.055C472.563 494.098 473.406 497.281 473.406 501.769H475.406ZM464.136 487.02C460.454 487.02 457.54 488.279 455.571 490.898L457.17 492.1C458.689 490.079 460.953 489.02 464.136 489.02V487.02ZM455.574 490.895C453.641 493.444 452.754 497.122 452.754 501.769H454.754C454.754 497.324 455.612 494.155 457.168 492.103L455.574 490.895ZM502.512 499.542H501.512V500.542H502.512V499.542ZM511.279 489.773L510.753 490.623L510.758 490.626L511.279 489.773ZM502.512 488.548V487.548H501.512V488.548H502.512ZM502.512 506.556V505.556H501.512V506.556H502.512ZM502.512 522.17V523.17H503.512V522.17H502.512ZM493.884 522.17H492.884V523.17H493.884V522.17ZM493.884 481.479V480.479H492.884V481.479H493.884ZM518.015 484.513L517.408 485.308L517.412 485.311L518.015 484.513ZM520.019 500.071L520.834 500.65L520.837 500.646L520.019 500.071ZM514.424 504.441L514.023 503.525L512.929 504.004L513.593 504.997L514.424 504.441ZM526.392 522.17V523.17H528.304L527.213 521.599L526.392 522.17ZM516.818 522.17L515.969 522.698L516.262 523.17H516.818V522.17ZM507.104 506.556L507.954 506.028L507.66 505.556H507.104V506.556ZM502.512 500.542H505.295V498.542H502.512V500.542ZM505.295 500.542C508.096 500.542 510.359 500.082 511.908 498.998L510.761 497.359C509.713 498.093 507.949 498.542 505.295 498.542V500.542ZM511.908 498.998C513.537 497.858 514.283 496.082 514.283 493.892H512.283C512.283 495.598 511.731 496.681 510.761 497.359L511.908 498.998ZM514.283 493.892C514.283 491.708 513.506 489.962 511.801 488.92L510.758 490.626C511.724 491.217 512.283 492.217 512.283 493.892H514.283ZM511.806 488.923C510.249 487.958 507.97 487.548 505.128 487.548V489.548C507.853 489.548 509.675 489.955 510.753 490.623L511.806 488.923ZM505.128 487.548H502.512V489.548H505.128V487.548ZM501.512 488.548V499.542H503.512V488.548H501.512ZM501.512 506.556V522.17H503.512V506.556H501.512ZM502.512 521.17H493.884V523.17H502.512V521.17ZM494.884 522.17V481.479H492.884V522.17H494.884ZM493.884 482.479H505.741V480.479H493.884V482.479ZM505.741 482.479C511.183 482.479 515.011 483.481 517.408 485.308L518.621 483.717C515.712 481.5 511.357 480.479 505.741 480.479V482.479ZM517.412 485.311C519.757 487.082 520.995 489.801 520.995 493.67H522.995C522.995 489.337 521.579 485.952 518.617 483.715L517.412 485.311ZM520.995 493.67C520.995 495.867 520.394 497.798 519.2 499.496L520.837 500.646C522.278 498.596 522.995 496.259 522.995 493.67H520.995ZM519.203 499.492C518.006 501.178 516.295 502.528 514.023 503.525L514.826 505.356C517.377 504.238 519.396 502.675 520.834 500.65L519.203 499.492ZM513.593 504.997C519.715 514.142 523.709 520.06 525.571 522.74L527.213 521.599C525.364 518.936 521.38 513.034 515.255 503.884L513.593 504.997ZM526.392 521.17H516.818V523.17H526.392V521.17ZM517.667 521.641L507.954 506.028L506.255 507.084L515.969 522.698L517.667 521.641ZM507.104 505.556H502.512V507.556H507.104V505.556ZM575.229 522.17L574.273 522.461L574.489 523.17H575.229V522.17ZM572.279 512.484L573.236 512.193L573.02 511.484H572.279V512.484ZM557.445 512.484V511.484H556.704L556.488 512.193L557.445 512.484ZM554.495 522.17V523.17H555.235L555.451 522.461L554.495 522.17ZM545.199 522.17L544.255 521.838L543.787 523.17H545.199V522.17ZM559.56 481.312V480.312H558.852L558.617 480.98L559.56 481.312ZM570.108 481.312L571.051 480.979L570.816 480.312H570.108V481.312ZM584.525 522.17V523.17H585.939L585.468 521.837L584.525 522.17ZM570.22 505.248V506.248H571.578L571.175 504.951L570.22 505.248ZM565.6 490.358L564.639 490.636L564.641 490.643L564.643 490.651L565.6 490.358ZM564.876 487.63L565.852 487.413L563.908 487.38L564.876 487.63ZM559.616 505.248L558.66 504.953L558.26 506.248H559.616V505.248ZM576.186 521.878L573.236 512.193L571.323 512.775L574.273 522.461L576.186 521.878ZM572.279 511.484H557.445V513.484H572.279V511.484ZM556.488 512.193L553.538 521.878L555.451 522.461L558.401 512.775L556.488 512.193ZM554.495 521.17H545.199V523.17H554.495V521.17ZM546.142 522.501L560.503 481.644L558.617 480.98L544.255 521.838L546.142 522.501ZM559.56 482.312H570.108V480.312H559.56V482.312ZM569.165 481.645L583.582 522.502L585.468 521.837L571.051 480.979L569.165 481.645ZM584.525 521.17H575.229V523.17H584.525V521.17ZM571.175 504.951C568.447 496.173 566.908 491.212 566.556 490.065L564.643 490.651C564.997 491.803 566.538 496.769 569.265 505.544L571.175 504.951ZM566.56 490.079C566.228 488.936 565.994 488.05 565.852 487.413L563.9 487.847C564.055 488.545 564.303 489.478 564.639 490.636L566.56 490.079ZM563.908 487.38C563.303 489.727 561.557 495.574 558.66 504.953L560.571 505.543C563.463 496.181 565.225 490.283 565.844 487.88L563.908 487.38ZM559.616 506.248H570.22V504.248H559.616V506.248ZM591.674 522.17H590.674V523.17H591.674V522.17ZM591.674 481.479V480.479H590.674V481.479H591.674ZM600.302 481.479H601.302V480.479H600.302V481.479ZM600.302 515.045H599.302V516.045H600.302V515.045ZM616.807 515.045H617.807V514.045H616.807V515.045ZM616.807 522.17V523.17H617.807V522.17H616.807ZM592.674 522.17V481.479H590.674V522.17H592.674ZM591.674 482.479H600.302V480.479H591.674V482.479ZM599.302 481.479V515.045H601.302V481.479H599.302ZM600.302 516.045H616.807V514.045H600.302V516.045ZM615.807 515.045V522.17H617.807V515.045H615.807ZM616.807 521.17H591.674V523.17H616.807V521.17ZM625.904 522.17H624.904V523.17H625.904V522.17ZM625.904 481.479V480.479H624.904V481.479H625.904ZM634.532 481.479H635.532V480.479H634.532V481.479ZM634.532 515.045H633.532V516.045H634.532V515.045ZM651.036 515.045H652.036V514.045H651.036V515.045ZM651.036 522.17V523.17H652.036V522.17H651.036ZM626.904 522.17V481.479H624.904V522.17H626.904ZM625.904 482.479H634.532V480.479H625.904V482.479ZM633.532 481.479V515.045H635.532V481.479H633.532ZM634.532 516.045H651.036V514.045H634.532V516.045ZM650.036 515.045V522.17H652.036V515.045H650.036ZM651.036 521.17H625.904V523.17H651.036V521.17Z"/><path fill="#F74868" stroke="#3C47E4" d="M89.1117 69.4955V70.2222L89.7904 69.9625C93.2811 68.6267 98.1456 67.5331 104.666 67.5331C140.564 67.5331 172.033 93.0857 172.041 130.8C172.041 152.023 164.563 168.85 151.851 180.377C139.132 191.908 121.128 198.174 100.011 198.174C79.1901 198.174 62.1381 191.993 51.2488 185.258V0.5H89.1117V69.4955ZM89.1117 161.445V161.778L89.419 161.906C92.7672 163.305 97.21 164.407 102.751 164.407C112.444 164.407 120.379 161.153 125.891 155.468C131.402 149.785 134.448 141.718 134.448 132.166C134.448 113.549 119.987 101.014 104.388 101.014C101.605 101.014 98.6228 101.434 95.9562 102.094C93.2966 102.752 90.9128 103.66 89.3434 104.658L89.1117 104.805V105.08V161.445Z"/><path fill="#F74868" stroke="#3C47E4" d="M368.806 90.2226L368.913 92.1305L369.755 90.4149C373.51 82.7575 379.961 78.1016 388.017 75.3556C395.952 72.6511 405.418 71.809 415.333 71.7851L415.008 102.843H415.006H415.002H414.997H414.993H414.988H414.984H414.98H414.975H414.971H414.966H414.962H414.957H414.953H414.948H414.944H414.939H414.935H414.93H414.925H414.921H414.916H414.912H414.907H414.902H414.898H414.893H414.888H414.884H414.879H414.874H414.87H414.865H414.86H414.855H414.851H414.846H414.841H414.836H414.831H414.827H414.822H414.817H414.812H414.807H414.802H414.797H414.792H414.788H414.783H414.778H414.773H414.768H414.763H414.758H414.753H414.748H414.743H414.737H414.732H414.727H414.722H414.717H414.712H414.707H414.702H414.697H414.691H414.686H414.681H414.676H414.67H414.665H414.66H414.655H414.649H414.644H414.639H414.633H414.628H414.623H414.617H414.612H414.607H414.601H414.596H414.59H414.585H414.579H414.574H414.568H414.563H414.557H414.552H414.546H414.541H414.535H414.529H414.524H414.518H414.513H414.507H414.501H414.495H414.49H414.484H414.478H414.473H414.467H414.461H414.455H414.449H414.444H414.438H414.432H414.426H414.42H414.414H414.408H414.402H414.396H414.39H414.384H414.378H414.372H414.366H414.36H414.354H414.348H414.342H414.336H414.33H414.324H414.318H414.311H414.305H414.299H414.293H414.287H414.28H414.274H414.268H414.262H414.255H414.249H414.243H414.236H414.23H414.223H414.217H414.211H414.204H414.198H414.191H414.185H414.178H414.172H414.165H414.159H414.152H414.145H414.139H414.132H414.125H414.119H414.112H414.105H414.099H414.092H414.085H414.078H414.072H414.065H414.058H414.051H414.044H414.037H414.031H414.024H414.017H414.01H414.003H413.996H413.989H413.982H413.975H413.968H413.961H413.954H413.947H413.939H413.932H413.925H413.918H413.911H413.904H413.896H413.889H413.882H413.874H413.867H413.86H413.853H413.845H413.838H413.83H413.823H413.816H413.808H413.801H413.793H413.786H413.778H413.771H413.763H413.755H413.748H413.74H413.733H413.725H413.717H413.71H413.702H413.694H413.686H413.679H413.671H413.663H413.655H413.647H413.639H413.632H413.624H413.616H413.608H413.6H413.592H413.584H413.576H413.568H413.56H413.552H413.543H413.535H413.527H413.519H413.511H413.503H413.494H413.486H413.478H413.47H413.461H413.453H413.445H413.436H413.428H413.419H413.411H413.403H413.394H413.386H413.377H413.369H413.36H413.351H413.343H413.334H413.326H413.317H413.308H413.3H413.291H413.282H413.273H413.265H413.256H413.247H413.238H413.229H413.22H413.211H413.203H413.194H413.185H413.176H413.167H413.158H413.149H413.139H413.13H413.121H413.112H413.103H413.094H413.084H413.075H413.066H413.057H413.047H413.038H413.029H413.019H413.01H413.001H412.991H412.982H412.972H412.963H412.953H412.944H412.934H412.925H412.915H412.905H412.896H412.886H412.876H412.867H412.857H412.847H412.837H412.827H412.818H412.808H412.798H412.788H412.778H412.768H412.758H412.748H412.738H412.728H412.718H412.708H412.698H412.688H412.678H412.667H412.657H412.647H412.637H412.626H412.616H412.606H412.595H412.585H412.575H412.564H412.554H412.543H412.533H412.522H412.512H412.501H412.491H412.48H412.469H412.459H412.448H412.437H412.427H412.416H412.405H412.394H412.384H412.373H412.362H412.351H412.34H412.329H412.318H412.307H412.296H412.285H412.274H412.263H412.252H412.241H412.229H412.218C401.464 102.843 391.084 106.02 383.387 113.003C375.681 119.994 370.718 130.75 370.718 145.792V194.315H331.813V71.2508H367.745L368.806 90.2226Z"/><path fill="#F74868" stroke="#3C47E4" d="M486.055 32.8869V70.7569V71.2569H486.555H524.804L521.889 103.116H487.109H486.609V103.616V148.507C486.609 153.278 488.221 157.048 491.037 159.621C493.847 162.189 497.802 163.518 502.408 163.518C507.276 163.518 511.228 163.046 514.677 161.845L511.77 193.613C507.748 195.416 501.126 196.458 493.391 196.458C479.84 196.458 468.494 192.049 460.54 184.587C452.588 177.127 447.996 166.587 447.996 154.26V103.616V103.116H447.496H434.444L434.19 71.2569H448.32H448.82V70.7569V47.0152L486.055 32.8869Z"/><path fill="#F74868" stroke="#3C47E4" d="M608.135 119.683L626.648 71.2508H663.406L620.074 183.965L620.074 183.966C603.439 227.311 583.327 252.545 553.887 259.99L537.976 234.822C547.356 231.664 555.058 227.279 561.865 220.205C568.81 212.986 574.799 202.993 580.703 188.717L580.78 188.53L580.707 188.343L534.652 71.2508H573.323L591.572 119.416L591.573 119.418C594.302 126.512 596.764 134.445 599.228 143.468L599.329 143.836H599.71H600.267H600.657L600.752 143.457C602.935 134.717 605.396 127.063 608.134 119.685C608.135 119.685 608.135 119.684 608.135 119.683Z"/><path fill="#F74868" stroke="#3C47E4" d="M307.403 128.355C306.202 136.153 300.219 140.087 294.404 142.079C291.501 143.074 288.669 143.572 286.559 143.822C285.506 143.947 284.635 144.009 284.029 144.04C283.726 144.056 283.489 144.063 283.329 144.067C283.249 144.069 283.189 144.07 283.148 144.07L283.103 144.071L283.093 144.071L283.091 144.071H283.09H283.09L229.435 143.917L228.778 143.915L228.951 144.549C232.014 155.736 243.709 168.487 265.811 168.487C279.741 168.487 290.567 165.344 301.044 159.326L297.616 191.219C289.238 195.23 277.348 198.174 261.159 198.174C220.895 198.174 189.175 172.308 189.175 132.099C189.175 92.1191 218.748 67.3916 253.227 67.3916C287.437 67.3916 308.253 91.0291 308.253 116.21C308.253 118.202 308.041 121.235 307.828 123.784C307.721 125.056 307.615 126.202 307.535 127.03C307.495 127.444 307.461 127.779 307.438 128.01L307.411 128.275L307.404 128.344L307.403 128.355ZM271.829 119.183H272.188L272.303 118.842C272.606 117.937 272.606 117.039 272.606 115.987V115.94C272.606 105.823 265.026 96.8152 253.235 96.8152C240.943 96.8152 230.364 105.764 227.579 118.577L227.448 119.183H228.068H271.829Z"/><path fill="#3C47E4" d="M59.3053 288.2H95.6493V367.818H144.313V396H59.3053V288.2ZM279.314 377.212H238.35L231.112 396H194.152L241.276 288.2H277.004L324.128 396H286.552L279.314 377.212ZM269.304 351.032L258.832 323.928L248.36 351.032H269.304ZM466.168 339.636C472.534 341.997 477.462 345.437 480.952 349.954C484.443 354.471 486.188 359.913 486.188 366.278C486.188 375.723 482.287 383.064 474.484 388.3C466.682 393.433 455.388 396 440.604 396H379.928V288.2H437.524C451.898 288.2 462.729 290.767 470.018 295.9C477.41 301.033 481.106 307.861 481.106 316.382C481.106 321.413 479.823 325.93 477.256 329.934C474.792 333.938 471.096 337.172 466.168 339.636ZM415.656 313.61V329.626H432.596C440.502 329.626 444.454 326.957 444.454 321.618C444.454 316.279 440.502 313.61 432.596 313.61H415.656ZM437.524 370.59C445.532 370.59 449.536 367.767 449.536 362.12C449.536 356.473 445.532 353.65 437.524 353.65H415.656V370.59H437.524ZM589.232 398.464C580.3 398.464 571.573 397.489 563.052 395.538C554.633 393.485 547.703 390.764 542.262 387.376L553.966 360.888C559.099 363.865 564.848 366.278 571.214 368.126C577.579 369.871 583.688 370.744 589.54 370.744C594.57 370.744 598.164 370.282 600.32 369.358C602.476 368.331 603.554 366.843 603.554 364.892C603.554 362.633 602.116 360.939 599.242 359.81C596.47 358.681 591.85 357.449 585.382 356.114C577.066 354.369 570.136 352.521 564.592 350.57C559.048 348.517 554.222 345.231 550.116 340.714C546.009 336.094 543.956 329.883 543.956 322.08C543.956 315.304 545.855 309.144 549.654 303.6C553.452 298.056 559.099 293.693 566.594 290.51C574.191 287.327 583.38 285.736 594.16 285.736C601.552 285.736 608.79 286.557 615.874 288.2C623.06 289.74 629.374 292.05 634.816 295.13L623.882 321.464C613.307 316.125 603.297 313.456 593.852 313.456C584.509 313.456 579.838 315.715 579.838 320.232C579.838 322.388 581.224 324.031 583.996 325.16C586.768 326.187 591.336 327.316 597.702 328.548C605.915 330.088 612.845 331.885 618.492 333.938C624.138 335.889 629.015 339.123 633.122 343.64C637.331 348.157 639.436 354.317 639.436 362.12C639.436 368.896 637.536 375.056 633.738 380.6C629.939 386.041 624.241 390.405 616.644 393.69C609.149 396.873 600.012 398.464 589.232 398.464Z"/><path fill="#FFBF47" d="M59.3053 288.2V285.2H56.3053V288.2H59.3053ZM95.6493 288.2H98.6493V285.2H95.6493V288.2ZM95.6493 367.818H92.6493V370.818H95.6493V367.818ZM144.313 367.818H147.313V364.818H144.313V367.818ZM144.313 396V399H147.313V396H144.313ZM59.3053 396H56.3053V399H59.3053V396ZM59.3053 291.2H95.6493V285.2H59.3053V291.2ZM92.6493 288.2V367.818H98.6493V288.2H92.6493ZM95.6493 370.818H144.313V364.818H95.6493V370.818ZM141.313 367.818V396H147.313V367.818H141.313ZM144.313 393H59.3053V399H144.313V393ZM62.3053 396V288.2H56.3053V396H62.3053ZM279.314 377.212L282.114 376.134L281.373 374.212H279.314V377.212ZM238.35 377.212V374.212H236.291L235.551 376.134L238.35 377.212ZM231.112 396V399H233.171L233.912 397.078L231.112 396ZM194.152 396L191.403 394.798L189.567 399H194.152V396ZM241.276 288.2V285.2H239.313L238.527 286.998L241.276 288.2ZM277.004 288.2L279.753 286.998L278.967 285.2H277.004V288.2ZM324.128 396V399H328.714L326.877 394.798L324.128 396ZM286.552 396L283.753 397.078L284.493 399H286.552V396ZM269.304 351.032V354.032H273.679L272.103 349.951L269.304 351.032ZM258.832 323.928L261.631 322.847L258.832 315.604L256.034 322.847L258.832 323.928ZM248.36 351.032L245.562 349.951L243.985 354.032H248.36V351.032ZM279.314 374.212H238.35V380.212H279.314V374.212ZM235.551 376.134L228.313 394.922L233.912 397.078L241.15 378.29L235.551 376.134ZM231.112 393H194.152V399H231.112V393ZM196.901 397.202L244.025 289.402L238.527 286.998L191.403 394.798L196.901 397.202ZM241.276 291.2H277.004V285.2H241.276V291.2ZM274.255 289.402L321.379 397.202L326.877 394.798L279.753 286.998L274.255 289.402ZM324.128 393H286.552V399H324.128V393ZM289.352 394.922L282.114 376.134L276.515 378.29L283.753 397.078L289.352 394.922ZM272.103 349.951L261.631 322.847L256.034 325.009L266.506 352.113L272.103 349.951ZM256.034 322.847L245.562 349.951L251.159 352.113L261.631 325.009L256.034 322.847ZM248.36 354.032H269.304V348.032H248.36V354.032ZM466.168 339.636L464.827 336.953L458.644 340.044L465.125 342.449L466.168 339.636ZM480.952 349.954L483.326 348.12L483.326 348.12L480.952 349.954ZM474.484 388.3L476.133 390.806L476.145 390.799L476.156 390.791L474.484 388.3ZM379.928 396H376.928V399H379.928V396ZM379.928 288.2V285.2H376.928V288.2H379.928ZM470.018 295.9L468.291 298.353L468.299 298.358L468.307 298.364L470.018 295.9ZM477.256 329.934L474.731 328.315L474.716 328.338L474.701 328.362L477.256 329.934ZM415.656 313.61V310.61H412.656V313.61H415.656ZM415.656 329.626H412.656V332.626H415.656V329.626ZM415.656 353.65V350.65H412.656V353.65H415.656ZM415.656 370.59H412.656V373.59H415.656V370.59ZM465.125 342.449C471.065 344.652 475.491 347.793 478.579 351.788L483.326 348.12C479.432 343.08 474.003 339.343 467.212 336.823L465.125 342.449ZM478.579 351.788C481.617 355.72 483.188 360.496 483.188 366.278H489.188C489.188 359.329 487.27 353.223 483.326 348.12L478.579 351.788ZM483.188 366.278C483.188 374.73 479.78 381.134 472.813 385.809L476.156 390.791C484.794 384.994 489.188 376.717 489.188 366.278H483.188ZM472.836 385.794C465.731 390.468 455.116 393 440.604 393V399C455.661 399 467.632 396.399 476.133 390.806L472.836 385.794ZM440.604 393H379.928V399H440.604V393ZM382.928 396V288.2H376.928V396H382.928ZM379.928 291.2H437.524V285.2H379.928V291.2ZM437.524 291.2C451.626 291.2 461.732 293.733 468.291 298.353L471.746 293.447C463.727 287.8 452.169 285.2 437.524 285.2V291.2ZM468.307 298.364C474.946 302.974 478.106 308.907 478.106 316.382H484.106C484.106 306.814 479.875 299.093 471.73 293.436L468.307 298.364ZM478.106 316.382C478.106 320.873 476.969 324.823 474.731 328.315L479.782 331.553C482.677 327.037 484.106 321.952 484.106 316.382H478.106ZM474.701 328.362C472.578 331.813 469.342 334.695 464.827 336.953L467.51 342.319C472.851 339.649 477.007 336.063 479.811 331.506L474.701 328.362ZM412.656 313.61V329.626H418.656V313.61H412.656ZM415.656 332.626H432.596V326.626H415.656V332.626ZM432.596 332.626C436.793 332.626 440.467 331.935 443.169 330.11C446.08 328.144 447.454 325.145 447.454 321.618H441.454C441.454 323.43 440.852 324.435 439.811 325.138C438.56 325.983 436.306 326.626 432.596 326.626V332.626ZM447.454 321.618C447.454 318.091 446.08 315.092 443.169 313.126C440.467 311.301 436.793 310.61 432.596 310.61V316.61C436.306 316.61 438.56 317.253 439.811 318.098C440.852 318.801 441.454 319.806 441.454 321.618H447.454ZM432.596 310.61H415.656V316.61H432.596V310.61ZM437.524 373.59C441.789 373.59 445.525 372.855 448.262 370.924C451.192 368.859 452.536 365.747 452.536 362.12H446.536C446.536 364.139 445.879 365.263 444.805 366.021C443.538 366.914 441.267 367.59 437.524 367.59V373.59ZM452.536 362.12C452.536 358.493 451.192 355.381 448.262 353.316C445.525 351.385 441.789 350.65 437.524 350.65V356.65C441.267 356.65 443.538 357.326 444.805 358.219C445.879 358.977 446.536 360.101 446.536 362.12H452.536ZM437.524 350.65H415.656V356.65H437.524V350.65ZM412.656 353.65V370.59H418.656V353.65H412.656ZM415.656 373.59H437.524V367.59H415.656V373.59ZM563.052 395.538L562.341 398.453L562.362 398.458L562.382 398.462L563.052 395.538ZM542.262 387.376L539.518 386.164L538.465 388.546L540.676 389.923L542.262 387.376ZM553.966 360.888L555.471 358.293L552.575 356.613L551.222 359.676L553.966 360.888ZM571.214 368.126L570.377 371.007L570.399 371.013L570.42 371.019L571.214 368.126ZM600.32 369.358L601.502 372.115L601.556 372.092L601.61 372.067L600.32 369.358ZM599.242 359.81L598.11 362.588L598.127 362.595L598.145 362.602L599.242 359.81ZM585.382 356.114L584.766 359.05L584.775 359.052L585.382 356.114ZM564.592 350.57L563.55 353.383L563.573 353.392L563.596 353.4L564.592 350.57ZM550.116 340.714L547.874 342.707L547.885 342.72L547.896 342.732L550.116 340.714ZM549.654 303.6L552.129 305.296L552.129 305.296L549.654 303.6ZM566.594 290.51L565.435 287.743L565.428 287.746L565.421 287.749L566.594 290.51ZM615.874 288.2L615.196 291.122L615.221 291.128L615.245 291.133L615.874 288.2ZM634.816 295.13L637.586 296.28L638.605 293.828L636.294 292.519L634.816 295.13ZM623.882 321.464L622.53 324.142L625.414 325.598L626.652 322.614L623.882 321.464ZM583.996 325.16L582.864 327.938L582.909 327.956L582.954 327.973L583.996 325.16ZM597.702 328.548L597.132 331.493L597.14 331.495L597.149 331.497L597.702 328.548ZM618.492 333.938L617.467 336.757L617.489 336.766L617.512 336.774L618.492 333.938ZM633.122 343.64L630.902 345.658L630.914 345.672L630.927 345.685L633.122 343.64ZM633.738 380.6L636.198 382.317L636.205 382.307L636.213 382.296L633.738 380.6ZM616.644 393.69L617.816 396.451L617.825 396.447L617.835 396.444L616.644 393.69ZM589.232 395.464C580.52 395.464 572.018 394.513 563.721 392.614L562.382 398.462C571.128 400.464 580.079 401.464 589.232 401.464V395.464ZM563.763 392.623C555.552 390.621 548.942 388.002 543.847 384.829L540.676 389.923C546.464 393.526 553.714 396.349 562.341 398.453L563.763 392.623ZM545.006 388.588L556.71 362.1L551.222 359.676L539.518 386.164L545.006 388.588ZM552.461 363.483C557.827 366.596 563.805 369.099 570.377 371.007L572.05 365.245C565.892 363.457 560.371 361.135 555.471 358.293L552.461 363.483ZM570.42 371.019C577.012 372.827 583.388 373.744 589.54 373.744V367.744C583.987 367.744 578.146 366.916 572.007 365.233L570.42 371.019ZM589.54 373.744C594.617 373.744 598.743 373.298 601.502 372.115L599.138 366.601C597.584 367.266 594.524 367.744 589.54 367.744V373.744ZM601.61 372.067C603.009 371.4 604.266 370.486 605.175 369.231C606.108 367.943 606.554 366.458 606.554 364.892H600.554C600.554 365.277 600.46 365.512 600.315 365.712C600.146 365.946 599.786 366.289 599.03 366.649L601.61 372.067ZM606.554 364.892C606.554 363.065 605.95 361.386 604.763 359.987C603.624 358.643 602.067 357.697 600.339 357.018L598.145 362.602C599.291 363.053 599.891 363.518 600.188 363.868C600.439 364.163 600.554 364.461 600.554 364.892H606.554ZM600.374 357.032C597.327 355.791 592.474 354.514 585.988 353.176L584.775 359.052C591.225 360.383 595.612 361.571 598.11 362.588L600.374 357.032ZM585.998 353.178C577.759 351.449 570.966 349.633 565.587 347.74L563.596 353.4C569.305 355.409 576.372 357.288 584.766 359.05L585.998 353.178ZM565.634 347.757C560.555 345.876 556.13 342.87 552.336 338.696L547.896 342.732C552.315 347.593 557.54 351.157 563.55 353.383L565.634 347.757ZM552.358 338.721C548.857 334.783 546.956 329.347 546.956 322.08H540.956C540.956 330.418 543.161 337.405 547.874 342.707L552.358 338.721ZM546.956 322.08C546.956 315.904 548.675 310.336 552.129 305.296L547.179 301.904C543.035 307.952 540.956 314.704 540.956 322.08H546.956ZM552.129 305.296C555.541 300.315 560.686 296.278 567.766 293.271L565.421 287.749C557.512 291.107 551.364 295.797 547.179 301.904L552.129 305.296ZM567.753 293.277C574.889 290.288 583.661 288.736 594.16 288.736V282.736C583.099 282.736 573.493 284.367 565.435 287.743L567.753 293.277ZM594.16 288.736C601.327 288.736 608.338 289.532 615.196 291.122L616.551 285.278C609.242 283.582 601.776 282.736 594.16 282.736V288.736ZM615.245 291.133C622.185 292.62 628.203 294.834 633.338 297.741L636.294 292.519C630.545 289.266 623.936 286.86 616.502 285.267L615.245 291.133ZM632.045 293.98L621.111 320.314L626.652 322.614L637.586 296.28L632.045 293.98ZM625.234 318.786C614.344 313.288 603.871 310.456 593.852 310.456V316.456C602.723 316.456 612.27 318.963 622.53 324.142L625.234 318.786ZM593.852 310.456C589.035 310.456 584.985 311.023 582.035 312.449C580.52 313.182 579.19 314.192 578.244 315.565C577.281 316.961 576.838 318.557 576.838 320.232H582.838C582.838 319.649 582.979 319.268 583.184 318.97C583.405 318.649 583.827 318.247 584.647 317.851C586.369 317.018 589.326 316.456 593.852 316.456V310.456ZM576.838 320.232C576.838 322.016 577.433 323.651 578.584 325.016C579.689 326.325 581.195 327.258 582.864 327.938L585.128 322.382C584.024 321.932 583.452 321.48 583.17 321.146C582.935 320.868 582.838 320.604 582.838 320.232H576.838ZM582.954 327.973C585.973 329.091 590.749 330.258 597.132 331.493L598.272 325.603C591.924 324.374 587.563 323.282 585.038 322.347L582.954 327.973ZM597.149 331.497C605.259 333.017 612.02 334.777 617.467 336.757L619.517 331.119C613.67 328.993 606.572 327.159 598.255 325.599L597.149 331.497ZM617.512 336.774C622.673 338.556 627.126 341.504 630.902 345.658L635.342 341.622C630.904 336.741 625.604 333.221 619.471 331.102L617.512 336.774ZM630.927 345.685C634.492 349.511 636.436 354.868 636.436 362.12H642.436C642.436 353.767 640.17 346.803 635.317 341.595L630.927 345.685ZM636.436 362.12C636.436 368.296 634.717 373.864 631.263 378.904L636.213 382.296C640.356 376.248 642.436 369.496 642.436 362.12H636.436ZM631.278 378.883C627.868 383.767 622.665 387.818 615.453 390.936L617.835 396.444C625.817 392.992 632.01 388.316 636.198 382.317L631.278 378.883ZM615.471 390.929C608.446 393.912 599.733 395.464 589.232 395.464V401.464C600.291 401.464 609.852 399.834 617.816 396.451L615.471 390.929Z"/></svg>